<svg xmlns="http://www.w3.org/2000/svg" viewBox="0 0 59.999707 59.999706" height="64" width="64">
	<path d="M29.882 5.303v8.145H4.688A4.678 4.678 0 0 0 0 18.136V50.01a4.678 4.678 0 0 0 4.688 4.687h50.624A4.678 4.678 0 0 0 60 50.01V18.135a4.678 4.678 0 0 0-4.688-4.688h-6.68V5.303h-18.75zm4.805 3.457h9.374v3.75h-9.37V8.76zm-3.28 11.25A13.594 13.594 0 0 1 45 33.604a13.594 13.594 0 0 1-13.593 13.593 13.594 13.594 0 0 1-13.594-13.593A13.594 13.594 0 0 1 31.407 20.01zM7.5 20.947H15v3.75H7.5v-3.75zm23.907 3.75a8.906 8.906 0 0 0-8.908 8.907 8.906 8.906 0 0 0 8.904 8.905 8.906 8.906 0 0 0 8.906-8.91 8.906 8.906 0 0 0-8.904-8.906z" fill="#6a86d8"/>
</svg>
